<?xml version="1.0" encoding="UTF-8" standalone="no"?>
<svg
   xmlns:dc="http://purl.org/dc/elements/1.1/"
   xmlns:cc="http://creativecommons.org/ns#"
   xmlns:rdf="http://www.w3.org/1999/02/22-rdf-syntax-ns#"
   xmlns:svg="http://www.w3.org/2000/svg"
   xmlns="http://www.w3.org/2000/svg"
   version="1.1"
   id="remember_svg"
   xml:space="preserve"
   viewBox="0 0 167.0869141 242.6669922"
   height="242.6669922pt"
   width="167.0869141pt"><metadata
   id="metadata43"><rdf:RDF><cc:Work
       rdf:about=""><dc:format>image/svg+xml</dc:format><dc:type
         rdf:resource="http://purl.org/dc/dcmitype/StillImage" /><dc:title></dc:title></cc:Work></rdf:RDF></metadata><defs
   id="defs41" />















































<g
   id="g10137"><g
     style="fill-rule:nonzero;clip-rule:nonzero;stroke:#000000;stroke-miterlimit:4;"
     id="Layer_x0020_1">
		<path
   id="path5"
   d="M166.8369141,235.5478516c0,3.7773438-3.0869141,6.8691406-6.8710938,6.8691406H7.1108398c-3.7749023,0-6.8608398-3.0917969-6.8608398-6.8691406V7.1201172C0.25,3.3427734,3.3359375,0.25,7.1108398,0.25h152.8549805    c3.7841797,0,6.8710938,3.0927734,6.8710938,6.8701172v228.4277344z"
   style="fill:#FFFFFF;stroke-width:0.5;" />
		<g
   id="g7"
   style="stroke:none;">
			<g
   id="g9">

			</g>

		</g>
		<g
   id="g15">

		</g>
		<g
   id="g19">

		</g>
		<g
   id="g23"
   style="stroke:none;">
			<g
   id="g25">

			</g>

		</g>
		<g
   id="g31"
   style="stroke:none;">
			<g
   id="g33">

			</g>

		</g>
	</g><g
     onclick="remember(&quot;spades&quot;)"
     id="spades"
     transform="matrix(1.9268408,1.9268408,-1.7617327,1.7617327,121.88538,29.795731)"><path
       style="fill:#000000"
       d="M 7.989,3.103 C 7.747,-0.954 0.242,-8.59 0,-10.5 c -0.242,1.909 -7.747,9.545 -7.989,13.603 -0.169,2.868 1.695,4.057 3.39,4.057 1.8351685,-0.021581 3.3508701,-2.8006944 3.873,-3.341 0.242,0.716 -1.603,6.682 -2.179,6.682 H 2.906 C 2.33,10.501 0.485,4.535 0.727,3.819 1.1841472,4.3152961 2.5241276,7.0768295 4.601,7.16 6.295,7.159 8.158,5.971 7.989,3.103 Z"
       id="sl-4" /></g><g
     onmousedown=""
     onmouseover=""
     onclick="remember(&quot;hearts&quot;)"
     id="hearts"
     transform="matrix(2.014396,-2.014396,1.8852829,1.8852829,52.813608,37.403207)"><path
       d="M 3.676,-9 C 0.433,-9 0,-5.523 0,-5.523 0,-5.523 -0.433,-9 -3.676,-9 -5.946,-9 -8,-7.441 -8,-4.5 -8,-0.614 -1.4208493,3.2938141 0,9 1.35201,3.2985969 8,-0.614 8,-4.5 8,-7.441 5.946,-9 3.676,-9 Z"
       id="hl"
       style="fill:#df0000" /></g><g
     onclick="remember(&quot;clubs&quot;)"
     id="clubs"
     transform="matrix(-1.8204339,-1.8204339,1.8204339,-1.8204339,93.379543,211.86849)"><path
       style="fill:#000000"
       d="m 50.291466,22.698228 c 0,0 2.375,-1.9 2.375,-4.534 0,-1.542 -1.369,-4.102 -4.534,-4.102 -3.165,0 -4.534,2.561 -4.534,4.102 0,2.634 2.375,4.534 2.375,4.534 -2.638,-2.055 -7.341,-0.652 -7.341,3.455 0,2.056 1.68,4.318 4.318,4.318 3.165,0 4.534,-3.455 4.534,-3.455 0,0 0.402,3.938 -1.943,6.046 h 5.182 c -2.345,-2.107 -1.943,-6.046 -1.943,-6.046 0,0 1.369,3.455 4.534,3.455 2.639,0 4.318,-2.263 4.318,-4.318 0,-4.107 -4.703,-5.51 -7.341,-3.455 z"
       id="cl" /></g><g
     onclick="remember(&quot;diamonds&quot;)"
     id="diamonds"
     transform="matrix(1.8961611,-1.8961611,1.8961611,1.8961611,115.09031,80.07692)"><path
       d="M 3.2433274,-4.7253274 C 1.1263274,-7.5893274 0,-10.5 0,-10.5 c 0,0 -1.1263274,2.9106726 -3.2433274,5.7746726 C -5.3613274,-1.8623274 -8,0 -8,0 -8,0 -5.3613274,1.8613274 -3.2433274,4.7263274 -1.1263274,7.5893274 0,10.5 0,10.5 0,10.5 1.1263274,7.5893274 3.2433274,4.7263274 5.3613274,1.8613274 8,0 8,0 8,0 5.3613274,-1.8623274 3.2433274,-4.7253274 Z"
       id="dl"
       style="fill:#df0000" /></g><text
     onclick="remember(&quot;2&quot;)"
     xml:space="preserve"
     style="font-style:normal;font-weight:normal;font-size:14.8338px;line-height:0%;font-family:'Bitstream Vera Sans';letter-spacing:0px;word-spacing:0px;fill:#000000;fill-opacity:1;stroke:none;stroke-width:1.23615"
     x="8.5555696"
     y="144.02446"
     id="two"><tspan
       id="tspan3790"
       x="8.5555696"
       y="144.02446"
       style="font-style:normal;font-variant:normal;font-weight:normal;font-stretch:normal;font-size:39.5568px;line-height:1.25;font-family:Arial;-inkscape-font-specification:Arial;stroke-width:1.23615">2</tspan></text><text
     onclick="remember(&quot;3&quot;)"
     xml:space="preserve"
     style="font-style:normal;font-weight:normal;font-size:14.8338px;line-height:0%;font-family:'Bitstream Vera Sans';letter-spacing:0px;word-spacing:0px;fill:#df0000;fill-opacity:1;stroke:none;stroke-width:1.23615"
     x="40.673916"
     y="144.02446"
     id="three"><tspan
       id="tspan3790-1"
       x="40.673916"
       y="144.02446"
       style="font-style:normal;font-variant:normal;font-weight:normal;font-stretch:normal;font-size:39.5568px;line-height:1.25;font-family:Arial;-inkscape-font-specification:Arial;fill:#df0000;fill-opacity:1;stroke-width:1.23615">3</tspan></text><text
     onclick="remember(&quot;4&quot;)"
     xml:space="preserve"
     style="font-style:normal;font-weight:normal;font-size:14.8338px;line-height:0%;font-family:'Bitstream Vera Sans';letter-spacing:0px;word-spacing:0px;fill:#000000;fill-opacity:1;stroke:none;stroke-width:1.23615"
     x="73.54335"
     y="143.8156"
     id="four"><tspan
       id="tspan3790-2"
       x="73.54335"
       y="143.8156"
       style="font-style:normal;font-variant:normal;font-weight:normal;font-stretch:normal;font-size:39.5568px;line-height:1.25;font-family:Arial;-inkscape-font-specification:Arial;stroke-width:1.23615">4</tspan></text><text
     onclick="remember(&quot;5&quot;)"
     xml:space="preserve"
     style="font-style:normal;font-weight:normal;font-size:14.8338px;line-height:0%;font-family:'Bitstream Vera Sans';letter-spacing:0px;word-spacing:0px;fill:#df0000;fill-opacity:1;stroke:none;stroke-width:1.23615"
     x="105.57183"
     y="143.42929"
     id="five"><tspan
       id="tspan3790-13"
       x="105.57183"
       y="143.42929"
       style="font-style:normal;font-variant:normal;font-weight:normal;font-stretch:normal;font-size:39.5568px;line-height:1.25;font-family:Arial;-inkscape-font-specification:Arial;fill:#df0000;fill-opacity:1;stroke-width:1.23615">5</tspan></text><text
     onclick="remember(&quot;6&quot;)"
     xml:space="preserve"
     style="font-style:normal;font-weight:normal;font-size:14.8338px;line-height:0%;font-family:'Bitstream Vera Sans';letter-spacing:0px;word-spacing:0px;fill:#000000;fill-opacity:1;stroke:none;stroke-width:1.23615"
     x="138.34521"
     y="143.93149"
     id="six"><tspan
       id="tspan3790-0"
       x="138.34521"
       y="143.93149"
       style="font-style:normal;font-variant:normal;font-weight:normal;font-stretch:normal;font-size:39.5568px;line-height:1.25;font-family:Arial;-inkscape-font-specification:Arial;stroke-width:1.23615">6</tspan></text><text
     onclick="remember(&quot;7&quot;)"
     xml:space="preserve"
     style="font-style:normal;font-weight:normal;font-size:14.8338px;line-height:0%;font-family:'Bitstream Vera Sans';letter-spacing:0px;word-spacing:0px;fill:#df0000;fill-opacity:1;stroke:none;stroke-width:1.23615"
     x="7.8764601"
     y="188.44859"
     id="seven"><tspan
       id="tspan3790-5"
       x="7.8764601"
       y="188.44859"
       style="font-style:normal;font-variant:normal;font-weight:normal;font-stretch:normal;font-size:39.5568px;line-height:1.25;font-family:Arial;-inkscape-font-specification:Arial;fill:#df0000;fill-opacity:1;stroke-width:1.23615">7</tspan></text><text
     onclick="remember(&quot;8&quot;)"
     xml:space="preserve"
     style="font-style:normal;font-weight:normal;font-size:14.8338px;line-height:0%;font-family:'Bitstream Vera Sans';letter-spacing:0px;word-spacing:0px;fill:#000000;fill-opacity:1;stroke:none;stroke-width:1.23615"
     x="47.146866"
     y="188.93146"
     id="eight"><tspan
       id="tspan3790-9"
       x="47.146866"
       y="188.93146"
       style="font-style:normal;font-variant:normal;font-weight:normal;font-stretch:normal;font-size:39.5568px;line-height:1.25;font-family:Arial;-inkscape-font-specification:Arial;stroke-width:1.23615">8</tspan></text><text
     onclick="remember(&quot;9&quot;)"
     xml:space="preserve"
     style="font-style:normal;font-weight:normal;font-size:14.8338px;line-height:0%;font-family:'Bitstream Vera Sans';letter-spacing:0px;word-spacing:0px;fill:#df0000;fill-opacity:1;stroke:none;stroke-width:1.23615"
     x="88.358238"
     y="188.93146"
     id="nine"><tspan
       id="tspan3790-7"
       x="88.358238"
       y="188.93146"
       style="font-style:normal;font-variant:normal;font-weight:normal;font-stretch:normal;font-size:39.5568px;line-height:1.25;font-family:Arial;-inkscape-font-specification:Arial;fill:#df0000;fill-opacity:1;stroke-width:1.23615">9</tspan></text><g
     onclick="remember(&quot;10&quot;)"
     transform="translate(8.4180395,-4.5)"
     id="ten"><text
       id="text3788-21"
       y="193.43146"
       x="112.52475"
       style="font-style:normal;font-weight:normal;font-size:14.8338px;line-height:0%;font-family:'Bitstream Vera Sans';letter-spacing:0px;word-spacing:0px;fill:#000000;fill-opacity:1;stroke:none;stroke-width:1.23615"
       xml:space="preserve"><tspan
         style="font-style:normal;font-variant:normal;font-weight:normal;font-stretch:normal;font-size:39.5568px;line-height:1.25;font-family:Arial;-inkscape-font-specification:Arial;stroke-width:1.23615"
         y="193.43146"
         x="112.52475"
         id="tspan3790-8">1</tspan></text><text
       id="text3038"
       y="194.33925"
       x="127.55958"
       style="font-style:normal;font-weight:normal;font-size:14.8338px;line-height:0%;font-family:'Bitstream Vera Sans';letter-spacing:0px;word-spacing:0px;fill:#000000;fill-opacity:1;stroke:none;stroke-width:1.23615"
       xml:space="preserve"><tspan
         style="font-size:39.5568px;line-height:1.25;stroke-width:1.23615"
         y="194.33925"
         x="127.55958"
         id="tspan3040">0</tspan></text></g><text
     onclick="remember(&quot;jack&quot;)"
     xml:space="preserve"
     style="font-style:normal;font-weight:normal;font-size:14.8338px;line-height:0%;font-family:'Bitstream Vera Sans';letter-spacing:0px;word-spacing:0px;fill:#df0000;fill-opacity:1;stroke:none;stroke-width:1.23615"
     x="8.6133394"
     y="233.81557"
     id="jack"><tspan
       id="tspan3790-78"
       x="8.6133394"
       y="233.81557"
       style="font-style:normal;font-variant:normal;font-weight:normal;font-stretch:normal;font-size:39.5568px;line-height:1.25;font-family:Arial;-inkscape-font-specification:Arial;fill:#df0000;fill-opacity:1;stroke-width:1.23615">J</tspan></text><text
     onclick="remember(&quot;king&quot;)"
     xml:space="preserve"
     style="font-style:normal;font-weight:normal;font-size:14.8338px;line-height:0%;font-family:'Bitstream Vera Sans';letter-spacing:0px;word-spacing:0px;fill:#df0000;fill-opacity:1;stroke:none;stroke-width:1.23615"
     x="85.97464"
     y="234.89241"
     id="king"><tspan
       id="tspan3790-83"
       x="85.97464"
       y="234.89241"
       style="font-style:normal;font-variant:normal;font-weight:normal;font-stretch:normal;font-size:39.5568px;line-height:1.25;font-family:Arial;-inkscape-font-specification:Arial;fill:#df0000;fill-opacity:1;stroke-width:1.23615">K</tspan></text><text
     onclick="remember(&quot;queen&quot;)"
     xml:space="preserve"
     style="font-style:normal;font-weight:normal;font-size:14.8338px;line-height:0%;font-family:'Bitstream Vera Sans';letter-spacing:0px;word-spacing:0px;fill:#000000;fill-opacity:1;stroke:none;stroke-width:1.23615"
     x="43.182228"
     y="234.31775"
     id="queen"><tspan
       id="tspan3790-77"
       x="43.182228"
       y="234.31775"
       style="font-style:normal;font-variant:normal;font-weight:normal;font-stretch:normal;font-size:39.5568px;line-height:1.25;font-family:Arial;-inkscape-font-specification:Arial;stroke-width:1.23615">Q</tspan></text><text
     onclick="remember(&quot;ace&quot;)"
     xml:space="preserve"
     style="font-style:normal;font-weight:normal;font-size:14.8338px;line-height:0%;font-family:'Bitstream Vera Sans';letter-spacing:0px;word-spacing:0px;fill:#000000;fill-opacity:1;stroke:none;stroke-width:1.23615"
     x="128.30795"
     y="234.31775"
     id="ace"><tspan
       id="tspan3790-05"
       x="128.30795"
       y="234.31775"
       style="font-style:normal;font-variant:normal;font-weight:normal;font-stretch:normal;font-size:39.5568px;line-height:1.25;font-family:Arial;-inkscape-font-specification:Arial;stroke-width:1.23615">A</tspan></text></g><g
   id="webslicer-layer"><rect
     style="stroke-width:0.324037"
     id="Test"
     fill="red"
     opacity="0.5"
     x="22.5"
     y="9"
     width="52.5"
     height="45"><desc
       id="desc10313">format: png
dpi: 96
html-id: test
layout-disposition: bg-el-norepeat
layout-position-anchor: tl</desc></rect></g></svg>
