<?xml version="1.0" encoding="UTF-8" standalone="no"?>
<svg
   xmlns:dc="http://purl.org/dc/elements/1.1/"
   xmlns:cc="http://creativecommons.org/ns#"
   xmlns:rdf="http://www.w3.org/1999/02/22-rdf-syntax-ns#"
   xmlns:svg="http://www.w3.org/2000/svg"
   xmlns="http://www.w3.org/2000/svg"
   xmlns:sodipodi="http://sodipodi.sourceforge.net/DTD/sodipodi-0.dtd"
   xmlns:inkscape="http://www.inkscape.org/namespaces/inkscape"
   inkscape:version="1.0beta2 (2b71d25, 2019-12-03)"
   sodipodi:docname="two_of_hearts.svg"
   id="svg3671"
   viewBox="0 0 360 540"
   version="1.1"
   height="540"
   width="360">
  <metadata
     id="metadata3677">
    <rdf:RDF>
      <cc:Work
         rdf:about="">
        <dc:format>image/svg+xml</dc:format>
        <dc:type
           rdf:resource="http://purl.org/dc/dcmitype/StillImage" />
        <dc:title></dc:title>
      </cc:Work>
    </rdf:RDF>
  </metadata>
  <defs
     id="defs3675" />
  <sodipodi:namedview
     inkscape:current-layer="svg3671"
     inkscape:window-maximized="0"
     inkscape:window-y="23"
     inkscape:window-x="0"
     inkscape:cy="-330.5"
     inkscape:cx="149.5"
     inkscape:zoom="0.45640074"
     fit-margin-bottom="0"
     fit-margin-right="0"
     fit-margin-left="0"
     fit-margin-top="0"
     showgrid="false"
     id="namedview3673"
     inkscape:window-height="454"
     inkscape:window-width="670"
     inkscape:pageshadow="2"
     inkscape:pageopacity="0"
     guidetolerance="10"
     gridtolerance="10"
     objecttolerance="10"
     borderopacity="1"
     inkscape:document-rotation="0"
     bordercolor="#666666"
     pagecolor="#ffffff" />
  <g
     transform="translate(-30,-600)"
     id="ace_of_diamonds">
    <rect
       fill="#fff"
       x="30.5"
       y="600.5"
       stroke="#000"
       width="359"
       height="539"
       rx="29.944"
       id="g123454" />
    <g
       id="g1112">
      <path
         inkscape:connector-curvature="0"
         d="m 210,829.96 c 0,0 8,13.333 17.333,22.667 9.333,9.333 22.667,17.333 22.667,17.333 0,0 -13.333,8 -22.667,17.333 -9.33,9.34 -17.33,22.67 -17.33,22.67 0,0 -8,-13.333 -17.333,-22.667 -9.34,-9.33 -22.67,-17.33 -22.67,-17.33 0,0 13.333,-8 22.667,-17.333 9.33,-9.34 17.33,-22.67 17.33,-22.67"
         id="path46"
         style="fill:#ff5555" />
      <path
         inkscape:connector-curvature="0"
         d="m 360,1019.96 c 0,0 3,5 6.5,8.5 3.5,3.5 8.5,6.5 8.5,6.5 0,0 -5,3 -8.5,6.5 -3.5,3.5 -6.5,8.5 -6.5,8.5 0,0 -3,-5 -6.5,-8.5 -3.5,-3.5 -8.5,-6.5 -8.5,-6.5 0,0 5,-3 8.5,-6.5 3.5,-3.5 6.5,-8.5 6.5,-8.5"
         id="path48"
         style="fill:#ff5555" />
      <path
         inkscape:connector-curvature="0"
         d="m 60,690 c 0,0 3,5 6.5,8.5 3.5,3.5 8.5,6.5 8.5,6.5 0,0 -5,3 -8.5,6.5 C 63,715 60,720 60,720 c 0,0 -3,-5 -6.5,-8.5 C 50,708 45,705 45,705 c 0,0 5,-3 8.5,-6.5 C 57,695 60,690 60,690"
         id="path50"
         style="fill:#ff5555" />
      <g
         id="path52"
         stroke-width="1.5"
         fill="none"
         style="stroke:#ff5555;stroke-opacity:1"
         transform="matrix(2.2222222,0,0,-3.5296701,343.33333,1125.2989)">
        <line
           y1="17.75"
           x2="6.5"
           x1="3"
           y2="17.75"
           id="line20555"
           style="stroke:#ff5555;stroke-opacity:1" />
        <line
           y1="17.75"
           x2="8.5"
           x1="12"
           y2="17.75"
           id="line20557"
           style="stroke:#ff5555;stroke-opacity:1" />
        <polyline
           points="4.5 17.75 7.5 4.5 10.5 17.75"
           id="polyline20559"
           style="stroke:#ff5555;stroke-opacity:1" />
        <line
           y1="14.5"
           x2="9.75"
           x1="5.25"
           y2="14.5"
           id="line20561"
           style="stroke:#ff5555;stroke-opacity:1" />
      </g>
      <g
         id="path44"
         stroke-width="1.5"
         fill="none"
         style="stroke:#ff5555;stroke-opacity:1"
         transform="matrix(2.2222222,0,0,3.5296701,43.333333,614.70107)">
        <line
           y1="17.75"
           x2="6.5"
           x1="3"
           y2="17.75"
           id="line20565"
           style="stroke:#ff5555;stroke-opacity:1" />
        <line
           y1="17.75"
           x2="8.5"
           x1="12"
           y2="17.75"
           id="line20567"
           style="stroke:#ff5555;stroke-opacity:1" />
        <polyline
           points="4.5 17.75 7.5 4.5 10.5 17.75"
           id="polyline20569"
           style="stroke:#ff5555;stroke-opacity:1" />
        <line
           y1="14.5"
           x2="9.75"
           x1="5.25"
           y2="14.5"
           id="line20571"
           style="stroke:#ff5555;stroke-opacity:1" />
      </g>
    </g>
  </g>
</svg>
