<?xml version="1.0" encoding="UTF-8" standalone="no"?>
<svg
   xmlns:dc="http://purl.org/dc/elements/1.1/"
   xmlns:cc="http://creativecommons.org/ns#"
   xmlns:rdf="http://www.w3.org/1999/02/22-rdf-syntax-ns#"
   xmlns:svg="http://www.w3.org/2000/svg"
   xmlns="http://www.w3.org/2000/svg"
   xmlns:sodipodi="http://sodipodi.sourceforge.net/DTD/sodipodi-0.dtd"
   xmlns:inkscape="http://www.inkscape.org/namespaces/inkscape"
   inkscape:version="1.0beta2 (2b71d25, 2019-12-03)"
   sodipodi:docname="king_of_spades.svg"
   id="svg3071"
   viewBox="0 0 360 540"
   version="1.1"
   height="540"
   width="360">
  <metadata
     id="metadata3077">
    <rdf:RDF>
      <cc:Work
         rdf:about="">
        <dc:format>image/svg+xml</dc:format>
        <dc:type
           rdf:resource="http://purl.org/dc/dcmitype/StillImage" />
      </cc:Work>
    </rdf:RDF>
  </metadata>
  <defs
     id="defs3075" />
  <sodipodi:namedview
     inkscape:current-layer="svg3071"
     inkscape:window-maximized="0"
     inkscape:window-y="23"
     inkscape:window-x="0"
     inkscape:cy="-330.49999"
     inkscape:cx="-630.5"
     inkscape:zoom="0.45640074"
     fit-margin-bottom="0"
     fit-margin-right="0"
     fit-margin-left="0"
     fit-margin-top="0"
     showgrid="false"
     id="namedview3073"
     inkscape:window-height="454"
     inkscape:window-width="684"
     inkscape:pageshadow="2"
     inkscape:pageopacity="0"
     guidetolerance="10"
     gridtolerance="10"
     objecttolerance="10"
     borderopacity="1"
     inkscape:document-rotation="0"
     bordercolor="#666666"
     pagecolor="#ffffff" />
  <g
     transform="translate(0,-512.35999)"
     id="three_of_diamonds">
    <rect
       fill="#fff"
       x="0.5"
       y="512.85999"
       stroke="#000"
       width="359"
       height="539"
       rx="29.944"
       id="rect122" />
    <g
       fill="#f55"
       id="g124">
      <path
         inkscape:connector-curvature="0"
         d="m 180,562.36 c 0,0 8,13.333 17.333,22.667 9.333,9.333 22.667,17.333 22.667,17.333 0,0 -13.333,8 -22.667,17.333 -9.33,9.34 -17.33,22.67 -17.33,22.67 0,0 -8,-13.333 -17.333,-22.667 -9.34,-9.33 -22.67,-17.33 -22.67,-17.33 0,0 13.333,-8 22.667,-17.333 9.33,-9.34 17.33,-22.67 17.33,-22.67"
         id="path126" />
      <path
         inkscape:connector-curvature="0"
         d="m 180,742.36 c 0,0 8,13.333 17.333,22.667 9.333,9.333 22.667,17.333 22.667,17.333 0,0 -13.333,8 -22.667,17.333 -9.33,9.34 -17.33,22.67 -17.33,22.67 0,0 -8,-13.333 -17.333,-22.667 -9.34,-9.33 -22.67,-17.33 -22.67,-17.33 0,0 13.333,-8 22.667,-17.333 9.33,-9.34 17.33,-22.67 17.33,-22.67"
         id="path128" />
      <path
         inkscape:connector-curvature="0"
         d="m 180,922.36 c 0,0 8,13.333 17.333,22.667 9.333,9.333 22.667,17.333 22.667,17.333 0,0 -13.333,8 -22.667,17.333 -9.33,9.34 -17.33,22.71 -17.33,22.71 0,0 -8,-13.333 -17.333,-22.667 -9.34,-9.37 -22.67,-17.37 -22.67,-17.37 0,0 13.333,-8 22.667,-17.333 9.33,-9.34 17.33,-22.67 17.33,-22.67"
         id="path130" />
      <path
         inkscape:connector-curvature="0"
         d="m 330,932.36 c 0,0 3,5 6.5,8.5 3.5,3.5 8.5,6.5 8.5,6.5 0,0 -5,3 -8.5,6.5 -3.5,3.5 -6.5,8.5 -6.5,8.5 0,0 -3,-5 -6.5,-8.5 -3.5,-3.5 -8.5,-6.5 -8.5,-6.5 0,0 5,-3 8.5,-6.5 3.5,-3.5 6.5,-8.5 6.5,-8.5"
         id="path132" />
      <path
         inkscape:connector-curvature="0"
         d="m 30,602.36 c 0,0 3,5 6.5,8.5 3.5,3.5 8.5,6.5 8.5,6.5 0,0 -5,3 -8.5,6.5 -3.5,3.5 -6.5,8.5 -6.5,8.5 0,0 -3,-5 -6.5,-8.5 -3.5,-3.5 -8.5,-6.5 -8.5,-6.5 0,0 5,-3 8.5,-6.5 3.5,-3.5 6.5,-8.5 6.5,-8.5"
         id="path134" />
      <path
         inkscape:connector-curvature="0"
         d="m 30,542.36 c -5.54,0 -10,4.46 -10,10 v 5 h 5 v -5 c 0,-2.77 2.23,-5 5,-5 2.77,0 5,2.23 5,5 v 5 c 0,2.77 -2.23,5 -5,5 h -5 v 5 h 5 c 2.77,0 5,2.23 5,5 v 10 c 0,2.77 -2.23,5 -5,5 -2.77,0 -5,-2.23 -5,-5 v -5 h -5 v 5 c 0,5.54 4.46,10 10,10 5.54,0 10,-4.46 10,-10 v -10 c 0,-3 -1.323,-5.67 -3.406,-7.5 2.083,-1.83 3.406,-4.496 3.406,-7.5 v -5 c 0,-5.54 -4.46,-10 -10,-10"
         id="path136" />
      <path
         inkscape:connector-curvature="0"
         d="m 330,1022.4 c 5.54,0 10,-4.46 10,-10 v -5 h -5 v 5 c 0,2.77 -2.23,5 -5,5 -2.77,0 -5,-2.23 -5,-5 v -5 c 0,-2.77 2.23,-5 5,-5 h 5 v -5 h -5 c -2.77,0 -5,-2.23 -5,-5 v -10 c 0,-2.77 2.23,-5 5,-5 2.77,0 5,2.23 5,5 v 5 h 5 v -5 c 0,-5.54 -4.46,-10 -10,-10 -5.54,0 -10,4.46 -10,10 v 10 c 0,3 1.323,5.67 3.406,7.5 -2.083,1.83 -3.406,4.496 -3.406,7.5 v 5 c 0,5.54 4.46,10 10,10"
         id="path138" />
    </g>
  </g>
</svg>
