<?xml version="1.0" encoding="UTF-8" standalone="no"?>
<svg
   xmlns:dc="http://purl.org/dc/elements/1.1/"
   xmlns:cc="http://creativecommons.org/ns#"
   xmlns:rdf="http://www.w3.org/1999/02/22-rdf-syntax-ns#"
   xmlns:svg="http://www.w3.org/2000/svg"
   xmlns="http://www.w3.org/2000/svg"
   xmlns:sodipodi="http://sodipodi.sourceforge.net/DTD/sodipodi-0.dtd"
   xmlns:inkscape="http://www.inkscape.org/namespaces/inkscape"
   inkscape:version="1.0beta2 (2b71d25, 2019-12-03)"
   sodipodi:docname="king_of_diamonds.svg"
   id="svg3035"
   viewBox="0 0 360 540"
   version="1.1"
   height="540"
   width="360">
  <metadata
     id="metadata3041">
    <rdf:RDF>
      <cc:Work
         rdf:about="">
        <dc:format>image/svg+xml</dc:format>
        <dc:type
           rdf:resource="http://purl.org/dc/dcmitype/StillImage" />
      </cc:Work>
    </rdf:RDF>
  </metadata>
  <defs
     id="defs3039" />
  <sodipodi:namedview
     inkscape:current-layer="svg3035"
     inkscape:window-maximized="0"
     inkscape:window-y="23"
     inkscape:window-x="0"
     inkscape:cy="-900.49999"
     inkscape:cx="-1020.5"
     inkscape:zoom="0.45640074"
     fit-margin-bottom="0"
     fit-margin-right="0"
     fit-margin-left="0"
     fit-margin-top="0"
     showgrid="false"
     id="namedview3037"
     inkscape:window-height="454"
     inkscape:window-width="684"
     inkscape:pageshadow="2"
     inkscape:pageopacity="0"
     guidetolerance="10"
     gridtolerance="10"
     objecttolerance="10"
     borderopacity="1"
     inkscape:document-rotation="0"
     bordercolor="#666666"
     pagecolor="#ffffff" />
  <g
     transform="translate(0,-512.35999)"
     id="four_of_clubs">
    <rect
       fill="#fff"
       x="0.5"
       y="512.85999"
       stroke="#000"
       width="359"
       height="539"
       rx="29.944"
       id="rect162" />
    <path
       inkscape:connector-curvature="0"
       d="m 30,542.36 -10,35 v 5 h 12 v 10 h 5 v -10 h 3 v -5 h -3 v -15 h -5 v 15 h -6.8 l 10,-35 z"
       id="path164" />
    <path
       inkscape:connector-curvature="0"
       d="m 330,1022.4 10,-35 v -5 h -12 v -10 h -5 v 10 h -3 v 5 h 3 v 15 h 5 v -15 h 6.8 l -10,35 z"
       id="path166" />
    <path
       inkscape:connector-curvature="0"
       d="m 100,562.37 c -3.999,-0.082 -6.667,1.333 -9.333,4 -2.667,2.667 -4,5.333 -4,9.333 0,4 1.518,6.372 4,9.333 2.375,2.833 4,4 5.333,6.666 1.333,2.667 2.667,8 2.667,10.666 v 4 H 96 c -2.667,0 -8,-2.667 -9.333,-4 l -4,-4 c -2.667,-2.667 -5.333,-4 -9.333,-4 -4,0 -6.667,1.333 -9.333,4 -2.667,2.667 -4,5.333 -4,9.333 0,4 1.333,6.666 4,9.333 2.667,2.667 5.333,4 9.333,4 4,0 6.667,-1.333 9.333,-4 l 4,-4 c 1.333,-1.333 6.667,-4 9.333,-4 h 2.667 c -0.066,3.776 -0.346,10.37 -1.333,13.333 -1.333,4 -4,8 -6.667,10.666 -2.667,2.667 -10.667,8 -10.667,8 v 1.333 c 0,0 13.333,-2.667 16,-2.667 h 8 c 2.667,0 16,2.667 16,2.667 v -1.333 c 0,0 -8,-5.333 -10.667,-8 -2.667,-2.667 -5.333,-6.666 -6.667,-10.666 -0.988,-2.963 -1.267,-9.557 -1.333,-13.333 h 2.67 c 2.667,0 8,2.667 9.333,4 l 4,4 c 2.667,2.667 5.333,4 9.333,4 4,0 6.667,-1.333 9.333,-4 2.667,-2.667 4,-5.333 4,-9.333 0,-4 -1.333,-6.666 -4,-9.333 -2.667,-2.667 -5.333,-4 -9.333,-4 -4,0 -6.667,1.333 -9.333,4 l -4,4 c -1.333,1.333 -6.667,4 -9.333,4 h -2.667 v -4 c 0,-2.667 1.333,-8 2.667,-10.666 1.333,-2.667 2.667,-4 5.333,-6.666 2.653,-2.653 4,-5.333 4,-9.333 0,-4 -1.333,-6.666 -4,-9.333 -2.667,-2.667 -5.333,-4 -9.333,-4"
       id="path168" />
    <path
       inkscape:connector-curvature="0"
       d="m 260,562.37 c -3.999,-0.082 -6.667,1.333 -9.333,4 -2.667,2.667 -4,5.333 -4,9.333 0,4 1.518,6.372 4,9.333 2.375,2.833 4,4 5.333,6.666 1.333,2.667 2.667,8 2.667,10.666 v 4 h -2.67 c -2.667,0 -8,-2.667 -9.333,-4 l -4,-4 c -2.667,-2.667 -5.333,-4 -9.333,-4 -4,0 -6.667,1.333 -9.333,4 -2.667,2.667 -4,5.333 -4,9.333 0,4 1.333,6.666 4,9.333 2.667,2.667 5.333,4 9.333,4 4,0 6.667,-1.333 9.333,-4 l 4,-4 c 1.333,-1.333 6.667,-4 9.333,-4 h 2.667 c -0.066,3.776 -0.346,10.37 -1.333,13.333 -1.333,4 -4,8 -6.667,10.666 -2.667,2.667 -10.667,8 -10.667,8 v 1.333 c 0,0 13.333,-2.667 16,-2.667 h 8 c 2.667,0 16,2.667 16,2.667 v -1.333 c 0,0 -8,-5.333 -10.667,-8 -2.667,-2.667 -5.333,-6.666 -6.667,-10.666 -0.988,-2.963 -1.267,-9.557 -1.333,-13.333 H 264 c 2.667,0 8,2.667 9.333,4 l 4,4 c 2.667,2.667 5.333,4 9.333,4 4,0 6.667,-1.333 9.333,-4 2.667,-2.667 4,-5.333 4,-9.333 0,-4 -1.333,-6.666 -4,-9.333 -2.667,-2.667 -5.333,-4 -9.333,-4 -4,0 -6.667,1.333 -9.333,4 l -4,4 c -1.333,1.333 -6.667,4 -9.333,4 h -2.667 v -4 c 0,-2.667 1.333,-8 2.667,-10.666 1.333,-2.667 2.667,-4 5.333,-6.666 2.653,-2.653 4,-5.333 4,-9.333 0,-4 -1.333,-6.666 -4,-9.333 -2.667,-2.667 -5.333,-4 -9.333,-4"
       id="path170" />
    <path
       inkscape:connector-curvature="0"
       d="m 260,1002.4 c 3.999,0.081 6.667,-1.333 9.333,-4 2.667,-2.667 4,-5.333 4,-9.333 0,-4 -1.518,-6.372 -4,-9.333 -2.375,-2.833 -4,-4 -5.333,-6.666 -1.333,-2.667 -2.667,-8 -2.667,-10.666 v -4 h 2.67 c 2.667,0 8,2.667 9.333,4 l 4,4 c 2.667,2.667 5.333,4 9.333,4 4,0 6.667,-1.333 9.333,-4 2.667,-2.667 4,-5.333 4,-9.333 0,-4 -1.333,-6.666 -4,-9.333 -2.667,-2.667 -5.333,-4 -9.333,-4 -4,0 -6.667,1.333 -9.333,4 l -4,4 c -1.333,1.333 -6.667,4 -9.333,4 h -2.667 c 0.066,-3.776 0.346,-10.37 1.333,-13.333 1.333,-4 4,-8 6.667,-10.666 2.667,-2.667 10.667,-8 10.667,-8 v -1.333 c 0,0 -13.333,2.667 -16,2.667 h -8 c -2.667,0 -16,-2.667 -16,-2.667 v 1.333 c 0,0 8,5.333 10.667,8 2.667,2.667 5.333,6.666 6.667,10.666 0.988,2.963 1.267,9.557 1.333,13.333 H 256 c -2.667,0 -8,-2.667 -9.333,-4 l -4,-4 c -2.667,-2.667 -5.333,-4 -9.333,-4 -4,0 -6.667,1.333 -9.333,4 -2.667,2.667 -4,5.333 -4,9.333 0,4 1.333,6.666 4,9.333 2.667,2.667 5.333,4 9.333,4 4,0 6.667,-1.333 9.333,-4 l 4,-4 c 1.333,-1.333 6.667,-4 9.333,-4 h 2.667 v 4 c 0,2.667 -1.333,8 -2.667,10.666 -1.333,2.667 -2.667,4 -5.333,6.666 -2.653,2.653 -4,5.333 -4,9.333 0,4 1.333,6.666 4,9.333 2.667,2.667 5.333,4 9.333,4"
       id="path172" />
    <path
       inkscape:connector-curvature="0"
       d="m 100,1002.4 c 3.999,0.081 6.667,-1.333 9.333,-4 2.667,-2.667 4,-5.333 4,-9.333 0,-4 -1.518,-6.372 -4,-9.333 -2.375,-2.833 -4,-4 -5.333,-6.666 -1.333,-2.667 -2.667,-8 -2.667,-10.666 v -4 h 2.67 c 2.667,0 8,2.667 9.333,4 l 4,4 c 2.667,2.667 5.333,4 9.333,4 4,0 6.667,-1.333 9.333,-4 2.667,-2.667 4,-5.333 4,-9.333 0,-4 -1.333,-6.666 -4,-9.333 -2.667,-2.667 -5.333,-4 -9.333,-4 -4,0 -6.667,1.333 -9.333,4 l -4,4 c -1.333,1.333 -6.667,4 -9.333,4 h -2.667 c 0.066,-3.776 0.346,-10.37 1.333,-13.333 1.333,-4 4,-8 6.667,-10.666 2.667,-2.667 10.667,-8 10.667,-8 v -1.333 c 0,0 -13.333,2.667 -16,2.667 h -8 c -2.667,0 -16,-2.667 -16,-2.667 v 1.333 c 0,0 8,5.333 10.667,8 2.667,2.667 5.333,6.666 6.667,10.666 0.988,2.963 1.267,9.557 1.333,13.333 h -2.667 c -2.667,0 -8,-2.667 -9.333,-4 l -4,-4 c -2.667,-2.667 -5.333,-4 -9.333,-4 -4,0 -6.667,1.333 -9.333,4 -2.667,2.667 -4,5.333 -4,9.333 0,4 1.333,6.666 4,9.333 2.667,2.667 5.333,4 9.333,4 4,0 6.667,-1.333 9.333,-4 l 4,-4 c 1.333,-1.333 6.667,-4 9.333,-4 h 2.667 v 4 c 0,2.667 -1.333,8 -2.667,10.666 -1.333,2.667 -2.667,4 -5.333,6.666 -2.653,2.653 -4,5.333 -4,9.333 0,4 1.333,6.666 4,9.333 2.667,2.667 5.333,4 9.333,4"
       id="path174" />
    <path
       inkscape:connector-curvature="0"
       d="m 30,602.36 c -1.5,-0.031 -2.5,0.5 -3.5,1.5 -1,1 -1.5,2 -1.5,3.5 0,1.5 0.569,2.39 1.5,3.5 0.891,1.063 1.5,1.5 2,2.5 0.5,1 1,3 1,4 v 1.5 h -1 c -1,0 -3,-1 -3.5,-1.5 l -1.5,-1.5 c -1,-1 -2,-1.5 -3.5,-1.5 -1.5,0 -2.5,0.5 -3.5,1.5 -1,1 -1.5,2 -1.5,3.5 0,1.5 0.5,2.5 1.5,3.5 1,1 2,1.5 3.5,1.5 1.5,0 2.5,-0.5 3.5,-1.5 l 1.5,-1.5 c 0.5,-0.5 2.5,-1.5 3.5,-1.5 h 1 c -0.025,1.416 -0.13,3.889 -0.5,5 -0.5,1.5 -1.5,3 -2.5,4 -1,1 -4,3 -4,3 v 0.5 c 0,0 5,-1 6,-1 h 3 c 1,0 6,1 6,1 v -0.5 c 0,0 -3,-2 -4,-3 -1,-1 -2,-2.5 -2.5,-4 -0.37,-1.111 -0.475,-3.584 -0.5,-5 h 1 c 1,0 3,1 3.5,1.5 l 1.5,1.5 c 1,1 2,1.5 3.5,1.5 1.5,0 2.5,-0.5 3.5,-1.5 1,-1 1.5,-2 1.5,-3.5 0,-1.5 -0.5,-2.5 -1.5,-3.5 -1,-1 -2,-1.5 -3.5,-1.5 -1.5,0 -2.5,0.5 -3.5,1.5 l -1.5,1.5 c -0.5,0.5 -2.5,1.5 -3.5,1.5 h -1 v -1.5 c 0,-1 0.5,-3 1,-4 0.5,-1 1,-1.5 2,-2.5 0.995,-0.995 1.5,-2 1.5,-3.5 0,-1.5 -0.5,-2.5 -1.5,-3.5 -1,-1 -2,-1.5 -3.5,-1.5"
       id="path176" />
    <path
       inkscape:connector-curvature="0"
       d="m 330,962.36 c 1.5,0.028 2.5,-0.445 3.5,-1.333 1,-0.889 1.5,-1.778 1.5,-3.111 0,-1.333 -0.569,-2.124 -1.5,-3.111 -0.891,-0.944 -1.5,-1.333 -2,-2.222 -0.5,-0.889 -1,-2.667 -1,-3.556 v -1.333 h 1 c 1,0 3,0.889 3.5,1.333 l 1.5,1.333 c 1,0.889 2,1.333 3.5,1.333 1.5,0 2.5,-0.445 3.5,-1.333 1,-0.889 1.5,-1.778 1.5,-3.111 0,-1.333 -0.5,-2.222 -1.5,-3.111 -1,-0.889 -2,-1.333 -3.5,-1.333 -1.5,0 -2.5,0.444 -3.5,1.333 l -1.5,1.333 c -0.5,0.444 -2.5,1.333 -3.5,1.333 h -1 c 0.025,-1.259 0.13,-3.457 0.5,-4.445 0.5,-1.333 1.5,-2.667 2.5,-3.556 1,-0.889 4,-2.667 4,-2.667 v -0.444 c 0,0 -5,0.889 -6,0.889 h -3 c -1,0 -6,-0.889 -6,-0.889 v 0.444 c 0,0 3,1.778 4,2.667 1,0.889 2,2.222 2.5,3.556 0.37,0.988 0.475,3.186 0.5,4.445 h -1 c -1,0 -3,-0.889 -3.5,-1.333 l -1.5,-1.333 c -1,-0.889 -2,-1.333 -3.5,-1.333 -1.5,0 -2.5,0.444 -3.5,1.333 -1,0.889 -1.5,1.778 -1.5,3.111 0,1.333 0.5,2.222 1.5,3.111 1,0.889 2,1.333 3.5,1.333 1.5,0 2.5,-0.445 3.5,-1.333 l 1.5,-1.333 c 0.5,-0.444 2.5,-1.333 3.5,-1.333 h 1 v 1.333 c 0,0.889 -0.5,2.667 -1,3.556 -0.5,0.889 -1,1.333 -2,2.222 -0.995,0.885 -1.5,1.778 -1.5,3.111 0,1.333 0.5,2.222 1.5,3.111 1,0.889 2,1.333 3.5,1.333"
       id="path178" />
  </g>
</svg>
