<?xml version="1.0" encoding="UTF-8" standalone="no"?>
<svg
   xmlns:dc="http://purl.org/dc/elements/1.1/"
   xmlns:cc="http://creativecommons.org/ns#"
   xmlns:rdf="http://www.w3.org/1999/02/22-rdf-syntax-ns#"
   xmlns:svg="http://www.w3.org/2000/svg"
   xmlns="http://www.w3.org/2000/svg"
   xmlns:sodipodi="http://sodipodi.sourceforge.net/DTD/sodipodi-0.dtd"
   xmlns:inkscape="http://www.inkscape.org/namespaces/inkscape"
   inkscape:version="1.0beta2 (2b71d25, 2019-12-03)"
   sodipodi:docname="three_of_hearts.svg"
   id="svg7725"
   viewBox="0 0 360 540"
   version="1.1"
   height="540"
   width="360">
  <metadata
     id="metadata7731">
    <rdf:RDF>
      <cc:Work
         rdf:about="">
        <dc:format>image/svg+xml</dc:format>
        <dc:type
           rdf:resource="http://purl.org/dc/dcmitype/StillImage" />
      </cc:Work>
    </rdf:RDF>
  </metadata>
  <defs
     id="defs7729" />
  <sodipodi:namedview
     inkscape:current-layer="svg7725"
     inkscape:window-maximized="0"
     inkscape:window-y="23"
     inkscape:window-x="0"
     inkscape:cy="-330.49999"
     inkscape:cx="-3360.5"
     inkscape:zoom="0.45640074"
     fit-margin-bottom="0"
     fit-margin-right="0"
     fit-margin-left="0"
     fit-margin-top="0"
     showgrid="false"
     id="namedview7727"
     inkscape:window-height="767"
     inkscape:window-width="769"
     inkscape:pageshadow="2"
     inkscape:pageopacity="0"
     guidetolerance="10"
     gridtolerance="10"
     objecttolerance="10"
     borderopacity="1"
     inkscape:document-rotation="0"
     bordercolor="#666666"
     pagecolor="#ffffff" />
  <g
     transform="translate(0,-512.35999)"
     id="ten_of_diamonds">
    <rect
       fill="#fff"
       x="0.5"
       y="512.85999"
       stroke="#000"
       width="359"
       height="539"
       rx="29.944"
       id="rect14648" />
    <g
       transform="translate(5,22.362)"
       fill="#f55"
       id="g14650">
      <path
         inkscape:connector-curvature="0"
         transform="translate(0,440)"
         d="m 10,80 -5,7 v 7 l 5,-7 v 43 h 5 V 80 h -5"
         id="path14652" />
      <path
         inkscape:connector-curvature="0"
         d="m 30,520 c -5.54,0 -10,4.46 -10,10 v 30 c 0,5.54 4.46,10 10,10 5.54,0 10,-4.46 10,-10 v -30 c 0,-5.54 -4.46,-10 -10,-10 m 0,5 c 2.77,0 5,2.23 5,5 v 30 c 0,2.77 -2.23,5 -5,5 -2.77,0 -5,-2.23 -5,-5 v -30 c 0,-2.77 2.23,-5 5,-5"
         id="path14654" />
    </g>
    <g
       fill="#f55"
       id="g14656">
      <g
         transform="rotate(180,177.5,771.2)"
         id="g14658">
        <path
           inkscape:connector-curvature="0"
           transform="translate(0,440)"
           d="m 10,80 -5,7 v 7 l 5,-7 v 43 h 5 V 80 h -5"
           id="path14660" />
        <path
           inkscape:connector-curvature="0"
           d="m 30,520 c -5.54,0 -10,4.46 -10,10 v 30 c 0,5.54 4.46,10 10,10 5.54,0 10,-4.46 10,-10 v -30 c 0,-5.54 -4.46,-10 -10,-10 m 0,5 c 2.77,0 5,2.23 5,5 v 30 c 0,2.77 -2.23,5 -5,5 -2.77,0 -5,-2.23 -5,-5 v -30 c 0,-2.77 2.23,-5 5,-5"
           id="path14662" />
      </g>
      <path
         inkscape:connector-curvature="0"
         d="m 100,562.36 c 0,0 8,13.333 17.333,22.667 9.333,9.333 22.667,17.333 22.667,17.333 0,0 -13.333,8 -22.667,17.333 -9.33,9.34 -17.33,22.67 -17.33,22.67 0,0 -8,-13.333 -17.333,-22.667 -9.333,-9.33 -22.667,-17.33 -22.667,-17.33 0,0 13.333,-8 22.667,-17.333 9.333,-9.34 17.333,-22.67 17.333,-22.67"
         id="path14664" />
      <path
         inkscape:connector-curvature="0"
         d="m 330,932.36 c 0,0 3,5 6.5,8.5 3.5,3.5 8.5,6.5 8.5,6.5 0,0 -5,3 -8.5,6.5 -3.5,3.5 -6.5,8.5 -6.5,8.5 0,0 -3,-5 -6.5,-8.5 -3.5,-3.5 -8.5,-6.5 -8.5,-6.5 0,0 5,-3 8.5,-6.5 3.5,-3.5 6.5,-8.5 6.5,-8.5"
         id="path14666" />
      <path
         inkscape:connector-curvature="0"
         d="m 30,602.36 c 0,0 3,5 6.5,8.5 3.5,3.5 8.5,6.5 8.5,6.5 0,0 -5,3 -8.5,6.5 -3.5,3.5 -6.5,8.5 -6.5,8.5 0,0 -3,-5 -6.5,-8.5 -3.5,-3.5 -8.5,-6.5 -8.5,-6.5 0,0 5,-3 8.5,-6.5 3.5,-3.5 6.5,-8.5 6.5,-8.5"
         id="path14668" />
      <path
         inkscape:connector-curvature="0"
         d="m 260,562.36 c 0,0 8,13.333 17.333,22.667 9.333,9.333 22.667,17.333 22.667,17.333 0,0 -13.333,8 -22.667,17.333 -9.33,9.34 -17.33,22.67 -17.33,22.67 0,0 -8,-13.333 -17.333,-22.667 -9.34,-9.33 -22.67,-17.33 -22.67,-17.33 0,0 13.333,-8 22.667,-17.333 9.33,-9.34 17.33,-22.67 17.33,-22.67"
         id="path14670" />
      <path
         inkscape:connector-curvature="0"
         d="m 260,682.36 c 0,0 8,13.333 17.333,22.667 9.333,9.333 22.667,17.333 22.667,17.333 0,0 -13.333,8 -22.667,17.333 -9.33,9.34 -17.33,22.67 -17.33,22.67 0,0 -8,-13.333 -17.333,-22.667 -9.34,-9.33 -22.67,-17.33 -22.67,-17.33 0,0 13.333,-8 22.667,-17.333 9.33,-9.34 17.33,-22.67 17.33,-22.67"
         id="path14672" />
      <path
         inkscape:connector-curvature="0"
         d="m 260,802.36 c 0,0 8,13.333 17.333,22.667 9.333,9.333 22.667,17.333 22.667,17.333 0,0 -13.333,8 -22.667,17.333 -9.33,9.34 -17.33,22.67 -17.33,22.67 0,0 -8,-13.333 -17.333,-22.667 -9.34,-9.33 -22.67,-17.33 -22.67,-17.33 0,0 13.333,-8 22.667,-17.333 9.33,-9.34 17.33,-22.67 17.33,-22.67"
         id="path14674" />
      <path
         inkscape:connector-curvature="0"
         d="m 260,922.36 c 0,0 8,13.333 17.333,22.667 9.333,9.333 22.667,17.333 22.667,17.333 0,0 -13.333,8 -22.667,17.333 -9.33,9.34 -17.33,22.71 -17.33,22.71 0,0 -8,-13.333 -17.333,-22.667 -9.34,-9.37 -22.67,-17.37 -22.67,-17.37 0,0 13.333,-8 22.667,-17.333 9.33,-9.34 17.33,-22.67 17.33,-22.67"
         id="path14676" />
      <path
         inkscape:connector-curvature="0"
         d="m 100,682.36 c 0,0 8,13.333 17.333,22.667 9.333,9.333 22.667,17.333 22.667,17.333 0,0 -13.333,8 -22.667,17.333 -9.33,9.34 -17.33,22.67 -17.33,22.67 0,0 -8,-13.333 -17.333,-22.667 -9.333,-9.33 -22.667,-17.33 -22.667,-17.33 0,0 13.333,-8 22.667,-17.333 9.333,-9.34 17.333,-22.67 17.333,-22.67"
         id="path14678" />
      <path
         inkscape:connector-curvature="0"
         d="m 100,802.36 c 0,0 8,13.333 17.333,22.667 9.333,9.333 22.667,17.333 22.667,17.333 0,0 -13.333,8 -22.667,17.333 -9.33,9.34 -17.33,22.67 -17.33,22.67 0,0 -8,-13.333 -17.333,-22.667 -9.333,-9.33 -22.667,-17.33 -22.667,-17.33 0,0 13.333,-8 22.667,-17.333 9.333,-9.34 17.333,-22.67 17.333,-22.67"
         id="path14680" />
      <path
         inkscape:connector-curvature="0"
         d="m 100,922.36 c 0,0 8,13.333 17.333,22.667 9.333,9.333 22.667,17.333 22.667,17.333 0,0 -13.333,8 -22.667,17.333 -9.33,9.34 -17.33,22.71 -17.33,22.71 0,0 -8,-13.333 -17.333,-22.667 -9.333,-9.37 -22.667,-17.37 -22.667,-17.37 0,0 13.333,-8 22.667,-17.333 9.333,-9.34 17.333,-22.67 17.333,-22.67"
         id="path14682" />
      <path
         inkscape:connector-curvature="0"
         d="m 180,622.36 c 0,0 8,13.333 17.333,22.667 9.333,9.333 22.667,17.333 22.667,17.333 0,0 -13.333,8 -22.667,17.333 -9.33,9.34 -17.33,22.67 -17.33,22.67 0,0 -8,-13.333 -17.333,-22.667 -9.34,-9.33 -22.67,-17.33 -22.67,-17.33 0,0 13.333,-8 22.667,-17.333 9.33,-9.34 17.33,-22.67 17.33,-22.67"
         id="path14684" />
      <path
         inkscape:connector-curvature="0"
         d="m 180,862.36 c 0,0 8,13.333 17.333,22.667 9.333,9.333 22.667,17.333 22.667,17.333 0,0 -13.333,8 -22.667,17.333 -9.33,9.34 -17.33,22.67 -17.33,22.67 0,0 -8,-13.333 -17.333,-22.667 -9.34,-9.33 -22.67,-17.33 -22.67,-17.33 0,0 13.333,-8 22.667,-17.333 9.33,-9.34 17.33,-22.67 17.33,-22.67"
         id="path14686" />
    </g>
  </g>
</svg>
