<?xml version="1.0" encoding="UTF-8" standalone="no"?>
<svg
   xmlns:dc="http://purl.org/dc/elements/1.1/"
   xmlns:cc="http://creativecommons.org/ns#"
   xmlns:rdf="http://www.w3.org/1999/02/22-rdf-syntax-ns#"
   xmlns:svg="http://www.w3.org/2000/svg"
   xmlns="http://www.w3.org/2000/svg"
   xmlns:sodipodi="http://sodipodi.sourceforge.net/DTD/sodipodi-0.dtd"
   xmlns:inkscape="http://www.inkscape.org/namespaces/inkscape"
   inkscape:version="1.0beta2 (2b71d25, 2019-12-03)"
   sodipodi:docname="two_of_clubs.svg"
   id="svg7778"
   viewBox="0 0 360 540"
   version="1.1"
   height="540"
   width="360">
  <metadata
     id="metadata7784">
    <rdf:RDF>
      <cc:Work
         rdf:about="">
        <dc:format>image/svg+xml</dc:format>
        <dc:type
           rdf:resource="http://purl.org/dc/dcmitype/StillImage" />
      </cc:Work>
    </rdf:RDF>
  </metadata>
  <defs
     id="defs7782" />
  <sodipodi:namedview
     inkscape:current-layer="svg7778"
     inkscape:window-maximized="0"
     inkscape:window-y="23"
     inkscape:window-x="0"
     inkscape:cy="-1470.46"
     inkscape:cx="149.5"
     inkscape:zoom="0.45640074"
     fit-margin-bottom="0"
     fit-margin-right="0"
     fit-margin-left="0"
     fit-margin-top="0"
     showgrid="false"
     id="namedview7780"
     inkscape:window-height="767"
     inkscape:window-width="769"
     inkscape:pageshadow="2"
     inkscape:pageopacity="0"
     guidetolerance="10"
     gridtolerance="10"
     objecttolerance="10"
     borderopacity="1"
     inkscape:document-rotation="0"
     bordercolor="#666666"
     pagecolor="#ffffff" />
  <g
     transform="translate(-30,-1739.96)"
     id="ace_of_spades">
    <g
       id="g32322"
       transform="translate(30,1227.6)">
      <rect
         id="rect14512"
         rx="29.944"
         height="539"
         width="359"
         stroke="#000"
         y="512.85999"
         x="0.5"
         fill="#fff" />
    </g>
    <g
       id="g1114">
      <path
         d="m 180,742.36 c -1.333,6.667 -2.855,8.392 -5.333,12 -2.135,3.109 -5.122,5.562 -8,8 -2.917,2.471 -6.248,4.408 -9.333,6.667 -3.586,2.625 -7.819,4.588 -10.667,8 -3.184,3.815 -6.667,8.364 -6.667,13.333 0,3.975 2.408,7.975 5.333,10.667 3.523,3.241 8.548,5.444 13.333,5.333 5.369,-0.124 10.8,-2.94 14.667,-6.667 2.862,-2.758 5.333,-10.667 5.333,-10.667 v 2.667 c 0,1.333 -0.133,7.29 -1.333,10.667 -1.404,3.951 -3.83,7.579 -6.667,10.667 -3.01,3.273 -10.667,8 -10.667,8 v 1.333 c 0,0 10.612,-2.221 16,-2.667 2.658,-0.22 5.342,-0.22 8,0 5.388,0.446 16,2.667 16,2.667 v -1.333 c 0,0 -7.66,-4.727 -10.667,-8 -2.836,-3.088 -5.263,-6.716 -6.667,-10.667 -1.2,-3.376 -1.333,-10.667 -1.333,-10.667 v -2.667 c 0,0 2.471,7.908 5.333,10.667 3.867,3.726 9.298,6.543 14.667,6.667 4.786,0.11 9.811,-2.092 13.333,-5.333 2.925,-2.692 5.333,-6.691 5.333,-10.667 0,-4.969 -3.483,-9.518 -6.667,-13.333 -2.848,-3.412 -7.08,-5.375 -10.667,-8 -3.085,-2.258 -6.416,-4.195 -9.333,-6.667 -2.878,-2.438 -5.865,-4.891 -8,-8 -2.478,-3.608 -4,-5.333 -5.333,-12"
         id="path14518"
         transform="translate(30,1227.6)"
         inkscape:connector-curvature="0" />
      <path
         d="m 30,602.36 c -0.5,2.5 -1.071,3.147 -2,4.5 -0.801,1.166 -1.921,2.086 -3,3 -1.094,0.927 -2.343,1.653 -3.5,2.5 -1.345,0.984 -2.932,1.72 -4,3 -1.194,1.431 -2.5,3.137 -2.5,5 0,1.491 0.903,2.991 2,4 1.321,1.216 3.205,2.041 5,2 2.01,-0.05 4.05,-1.103 5.5,-2.5 1.073,-1.034 2,-4 2,-4 v 1 c 0,0.5 -0.05,2.734 -0.5,4 -0.527,1.481 -1.436,2.842 -2.5,4 -1.127,1.227 -4,3 -4,3 v 0.5 c 0,0 3.979,-0.833 6,-1 0.997,-0.08 2,-0.08 3,0 2.02,0.167 6,1 6,1 v -0.5 c 0,0 -2.873,-1.773 -4,-3 -1.064,-1.158 -1.973,-2.519 -2.5,-4 -0.45,-1.266 -0.5,-4 -0.5,-4 v -1 c 0,0 0.927,2.966 2,4 1.45,1.397 3.487,2.454 5.5,2.5 1.795,0.04 3.679,-0.784 5,-2 1.097,-1.01 2,-2.509 2,-4 0,-1.863 -1.306,-3.569 -2.5,-5 -1.068,-1.28 -2.655,-2.02 -4,-3 -1.157,-0.847 -2.406,-1.573 -3.5,-2.5 -1.079,-0.914 -2.199,-1.834 -3,-3 -0.929,-1.353 -1.5,-2 -2,-4.5"
         id="path14520"
         transform="translate(30,1227.6)"
         inkscape:connector-curvature="0" />
      <path
         d="m 330,962.36 c -0.5,-2.5 -1.071,-3.147 -2,-4.5 -0.801,-1.166 -1.921,-2.086 -3,-3 -1.094,-0.927 -2.343,-1.653 -3.5,-2.5 -1.345,-0.984 -2.932,-1.72 -4,-3 -1.194,-1.431 -2.5,-3.137 -2.5,-5 0,-1.491 0.903,-2.991 2,-4 1.321,-1.216 3.205,-2.041 5,-2 2.01,0.05 4.05,1.103 5.5,2.5 1.073,1.034 2,4 2,4 v -1 c 0,-0.5 -0.05,-2.734 -0.5,-4 -0.527,-1.481 -1.436,-2.842 -2.5,-4 -1.127,-1.227 -4,-3 -4,-3 v -0.5 c 0,0 3.979,0.833 6,1 0.997,0.08 2,0.08 3,0 2.02,-0.167 6,-1 6,-1 v 0.5 c 0,0 -2.873,1.773 -4,3 -1.064,1.158 -1.973,2.519 -2.5,4 -0.45,1.266 -0.5,4 -0.5,4 v 1 c 0,0 0.927,-2.966 2,-4 1.45,-1.397 3.487,-2.454 5.5,-2.5 1.795,-0.04 3.679,0.784 5,2 1.097,1.01 2,2.509 2,4 0,1.863 -1.306,3.569 -2.5,5 -1.068,1.28 -2.655,2.02 -4,3 -1.157,0.847 -2.406,1.573 -3.5,2.5 -1.079,0.914 -2.199,1.834 -3,3 -0.929,1.353 -1.5,2 -2,4.5"
         id="path14522"
         transform="translate(30,1227.6)"
         inkscape:connector-curvature="0" />
      <g
         id="path14514"
         stroke-width="1.5"
         fill="none"
         style="stroke:#000000;stroke-opacity:1"
         transform="matrix(2.2222222,0,0,3.5296701,43.333333,1754.7011)">
        <line
           y1="17.75"
           x2="6.5"
           x1="3"
           y2="17.75"
           id="line20595"
           style="stroke:#000000;stroke-opacity:1" />
        <line
           y1="17.75"
           x2="8.5"
           x1="12"
           y2="17.75"
           id="line20597"
           style="stroke:#000000;stroke-opacity:1" />
        <polyline
           points="4.5 17.75 7.5 4.5 10.5 17.75"
           id="polyline20599"
           style="stroke:#000000;stroke-opacity:1" />
        <line
           y1="14.5"
           x2="9.75"
           x1="5.25"
           y2="14.5"
           id="line20601"
           style="stroke:#000000;stroke-opacity:1" />
      </g>
      <g
         id="path14516"
         stroke-width="1.5"
         fill="none"
         style="stroke:#000000;stroke-opacity:1"
         transform="matrix(2.2222222,0,0,-3.5296701,343.33333,2265.2989)">
        <line
           y1="17.75"
           x2="6.5"
           x1="3"
           y2="17.75"
           id="line20605"
           style="stroke:#000000;stroke-opacity:1" />
        <line
           y1="17.75"
           x2="8.5"
           x1="12"
           y2="17.75"
           id="line20607"
           style="stroke:#000000;stroke-opacity:1" />
        <polyline
           points="4.5 17.75 7.5 4.5 10.5 17.75"
           id="polyline20609"
           style="stroke:#000000;stroke-opacity:1" />
        <line
           y1="14.5"
           x2="9.75"
           x1="5.25"
           y2="14.5"
           id="line20611"
           style="stroke:#000000;stroke-opacity:1" />
      </g>
    </g>
  </g>
</svg>
