<?xml version="1.0" encoding="UTF-8" standalone="no"?>
<svg
   xmlns:dc="http://purl.org/dc/elements/1.1/"
   xmlns:cc="http://creativecommons.org/ns#"
   xmlns:rdf="http://www.w3.org/1999/02/22-rdf-syntax-ns#"
   xmlns:svg="http://www.w3.org/2000/svg"
   xmlns="http://www.w3.org/2000/svg"
   xmlns:sodipodi="http://sodipodi.sourceforge.net/DTD/sodipodi-0.dtd"
   xmlns:inkscape="http://www.inkscape.org/namespaces/inkscape"
   inkscape:version="1.0beta2 (2b71d25, 2019-12-03)"
   sodipodi:docname="two_of_diamonds.svg"
   id="svg7803"
   viewBox="0 0 360 540"
   version="1.1"
   height="540"
   width="360">
  <metadata
     id="metadata7809">
    <rdf:RDF>
      <cc:Work
         rdf:about="">
        <dc:format>image/svg+xml</dc:format>
        <dc:type
           rdf:resource="http://purl.org/dc/dcmitype/StillImage" />
      </cc:Work>
    </rdf:RDF>
  </metadata>
  <defs
     id="defs7807" />
  <sodipodi:namedview
     inkscape:current-layer="svg7803"
     inkscape:window-maximized="0"
     inkscape:window-y="23"
     inkscape:window-x="0"
     inkscape:cy="923.9578"
     inkscape:cx="-331.33816"
     inkscape:zoom="0.16079099"
     fit-margin-bottom="0"
     fit-margin-right="0"
     fit-margin-left="0"
     fit-margin-top="0"
     showgrid="false"
     id="namedview7805"
     inkscape:window-height="767"
     inkscape:window-width="769"
     inkscape:pageshadow="2"
     inkscape:pageopacity="0"
     guidetolerance="10"
     gridtolerance="10"
     objecttolerance="10"
     borderopacity="1"
     inkscape:document-rotation="0"
     bordercolor="#666666"
     pagecolor="#ffffff" />
  <g
     transform="translate(-30,-1169.96)"
     id="ace_of_clubs">
    <g
       id="g54"
       transform="translate(0.5,1827.1)">
      <rect
         id="rect56"
         rx="29.944"
         height="539"
         width="359"
         stroke="#000"
         y="-656.64001"
         x="30"
         fill="#fff" />
    </g>
    <g
       id="g1113">
      <path
         inkscape:connector-curvature="0"
         d="m 209.5,-427.13 c -3.999,-0.081 -6.667,1.333 -9.333,4 -2.667,2.667 -4,5.333 -4,9.333 0,4 1.518,6.372 4,9.333 2.375,2.833 4,4 5.333,6.666 1.333,2.667 2.667,8 2.667,10.666 v 4 h -2.67 c -2.667,0 -8,-2.667 -9.333,-4 l -4,-4 c -2.667,-2.667 -5.333,-4 -9.333,-4 -4,0 -6.667,1.333 -9.333,4 -2.667,2.667 -4,5.333 -4,9.333 0,4 1.333,6.666 4,9.333 2.667,2.667 5.333,4 9.333,4 4,0 6.667,-1.333 9.333,-4 l 4,-4 c 1.333,-1.333 6.667,-4 9.333,-4 h 2.667 c -0.066,3.776 -0.346,10.37 -1.333,13.333 -1.333,4 -4,8 -6.667,10.666 -2.667,2.667 -10.667,8 -10.667,8 v 1.333 c 0,0 13.333,-2.667 16,-2.667 h 8 c 2.667,0 16,2.667 16,2.667 v -1.333 c 0,0 -8,-5.333 -10.667,-8 -2.667,-2.667 -5.333,-6.666 -6.667,-10.666 -0.988,-2.963 -1.267,-9.557 -1.333,-13.333 h 2.667 c 2.667,0 8,2.667 9.333,4 l 4,4 c 2.667,2.667 5.333,4 9.333,4 4,0 6.667,-1.333 9.333,-4 2.667,-2.667 4,-5.333 4,-9.333 0,-4 -1.333,-6.666 -4,-9.333 -2.667,-2.667 -5.333,-4 -9.333,-4 -4,0 -6.667,1.333 -9.333,4 l -4,4 c -1.333,1.333 -6.667,4 -9.333,4 h -2.667 v -4 c 0,-2.667 1.333,-8 2.667,-10.666 1.333,-2.667 2.667,-4 5.333,-6.666 2.653,-2.653 4,-5.333 4,-9.333 0,-4 -1.333,-6.666 -4,-9.333 -2.667,-2.667 -5.333,-4 -9.333,-4"
         id="path58"
         transform="translate(0.5,1827.1)" />
      <path
         inkscape:connector-curvature="0"
         d="m 59.5,-567.14 c -1.5,-0.031 -2.5,0.5 -3.5,1.5 -1,1 -1.5,2 -1.5,3.5 0,1.5 0.569,2.39 1.5,3.5 0.891,1.063 1.5,1.5 2,2.5 0.5,1 1,3 1,4 v 1.5 h -1 c -1,0 -3,-1 -3.5,-1.5 l -1.5,-1.5 c -1,-1 -2,-1.5 -3.5,-1.5 -1.5,0 -2.5,0.5 -3.5,1.5 -1,1 -1.5,2 -1.5,3.5 0,1.5 0.5,2.5 1.5,3.5 1,1 2,1.5 3.5,1.5 1.5,0 2.5,-0.5 3.5,-1.5 l 1.5,-1.5 c 0.5,-0.5 2.5,-1.5 3.5,-1.5 h 1 c -0.025,1.416 -0.13,3.889 -0.5,5 -0.5,1.5 -1.5,3 -2.5,4 -1,1 -4,3 -4,3 v 0.5 c 0,0 5,-1 6,-1 h 3 c 1,0 6,1 6,1 v -0.5 c 0,0 -3,-2 -4,-3 -1,-1 -2,-2.5 -2.5,-4 -0.37,-1.111 -0.475,-3.584 -0.5,-5 h 1 c 1,0 3,1 3.5,1.5 l 1.5,1.5 c 1,1 2,1.5 3.5,1.5 1.5,0 2.5,-0.5 3.5,-1.5 1,-1 1.5,-2 1.5,-3.5 0,-1.5 -0.5,-2.5 -1.5,-3.5 -1,-1 -2,-1.5 -3.5,-1.5 -1.5,0 -2.5,0.5 -3.5,1.5 l -1.5,1.5 c -0.5,0.5 -2.5,1.5 -3.5,1.5 h -1 v -1.5 c 0,-1 0.5,-3 1,-4 0.5,-1 1,-1.5 2,-2.5 0.995,-0.995 1.5,-2 1.5,-3.5 0,-1.5 -0.5,-2.5 -1.5,-3.5 -1,-1 -2,-1.5 -3.5,-1.5"
         id="path60"
         transform="translate(0.5,1827.1)" />
      <path
         inkscape:connector-curvature="0"
         d="m 359.5,-207.14 c 1.5,0.031 2.5,-0.5 3.5,-1.5 1,-1 1.5,-2 1.5,-3.5 0,-1.5 -0.569,-2.39 -1.5,-3.5 -0.891,-1.063 -1.5,-1.5 -2,-2.5 -0.5,-1 -1,-3 -1,-4 v -1.5 h 1 c 1,0 3,1 3.5,1.5 l 1.5,1.5 c 1,1 2,1.5 3.5,1.5 1.5,0 2.5,-0.5 3.5,-1.5 1,-1 1.5,-2 1.5,-3.5 0,-1.5 -0.5,-2.5 -1.5,-3.5 -1,-1 -2,-1.5 -3.5,-1.5 -1.5,0 -2.5,0.5 -3.5,1.5 l -1.5,1.5 c -0.5,0.5 -2.5,1.5 -3.5,1.5 h -1 c 0.025,-1.416 0.13,-3.889 0.5,-5 0.5,-1.5 1.5,-3 2.5,-4 1,-1 4,-3 4,-3 v -0.5 c 0,0 -5,1 -6,1 h -3 c -1,0 -6,-1 -6,-1 v 0.5 c 0,0 3,2 4,3 1,1 2,2.5 2.5,4 0.37,1.111 0.475,3.584 0.5,5 h -1 c -1,0 -3,-1 -3.5,-1.5 l -1.5,-1.5 c -1,-1 -2,-1.5 -3.5,-1.5 -1.5,0 -2.5,0.5 -3.5,1.5 -1,1 -1.5,2 -1.5,3.5 0,1.5 0.5,2.5 1.5,3.5 1,1 2,1.5 3.5,1.5 1.5,0 2.5,-0.5 3.5,-1.5 l 1.5,-1.5 c 0.5,-0.5 2.5,-1.5 3.5,-1.5 h 1 v 1.5 c 0,1 -0.5,3 -1,4 -0.5,1 -1,1.5 -2,2.5 -0.995,0.995 -1.5,2 -1.5,3.5 0,1.5 0.5,2.5 1.5,3.5 1,1 2,1.5 3.5,1.5"
         id="path62"
         transform="translate(0.5,1827.1)" />
      <g
         transform="matrix(2.2222222,0,0,-3.5296701,343.33333,1695.2989)"
         style="stroke:#000000;stroke-opacity:1"
         fill="none"
         stroke-width="1.5"
         id="path66">
        <line
           style="stroke:#000000;stroke-opacity:1"
           id="line20575"
           y2="17.75"
           x1="3"
           x2="6.5"
           y1="17.75" />
        <line
           style="stroke:#000000;stroke-opacity:1"
           id="line20577"
           y2="17.75"
           x1="12"
           x2="8.5"
           y1="17.75" />
        <polyline
           style="stroke:#000000;stroke-opacity:1"
           id="polyline20579"
           points="4.5 17.75 7.5 4.5 10.5 17.75" />
        <line
           style="stroke:#000000;stroke-opacity:1"
           id="line20581"
           y2="14.5"
           x1="5.25"
           x2="9.75"
           y1="14.5" />
      </g>
      <g
         transform="matrix(2.2222222,0,0,3.5296701,43.333333,1184.7011)"
         style="stroke:#000000;stroke-opacity:1"
         fill="none"
         stroke-width="1.5"
         id="path64">
        <line
           style="stroke:#000000;stroke-opacity:1"
           id="line20585"
           y2="17.75"
           x1="3"
           x2="6.5"
           y1="17.75" />
        <line
           style="stroke:#000000;stroke-opacity:1"
           id="line20587"
           y2="17.75"
           x1="12"
           x2="8.5"
           y1="17.75" />
        <polyline
           style="stroke:#000000;stroke-opacity:1"
           id="polyline20589"
           points="4.5 17.75 7.5 4.5 10.5 17.75" />
        <line
           style="stroke:#000000;stroke-opacity:1"
           id="line20591"
           y2="14.5"
           x1="5.25"
           x2="9.75"
           y1="14.5" />
      </g>
    </g>
  </g>
</svg>
